{"title":"Drive.2011.BRRIP.720P.H264-ZEKTORM","uid":6970884,"size":2306317573,"categoryP":"video","categoryS":"hd___movies","magnet":"?xt=urn:btih:6bbca5ce887edfde65fd46f2716fdcfad60ec844&amp;dn=Drive.2011.BRRIP.720P.H264-ZEKTORM&amp;tr=udp%3A%2F%2Ftracker.openbittorrent.com%3A80&amp;tr=udp%3A%2F%2Fopen.demonii.com%3A1337&amp;tr=udp%3A%2F%2Ftracker.coppersurfer.tk%3A6969&amp;tr=udp%3A%2F%2Fexodus.desync.com%3A6969","seeders":3,"leechers":0,"uploader":"blowley","files":4,"time":1327087426,"description":"Title                            : Drive\nYear                             : 2011\nGenre                            : Crime | Drama | Thriller\niMDB URL                         : http://www.imdb.com/title/tt0780504/\n\nComplete name                    : Drive.2011.BRRIP.720P.H264-ZEKTORM.mp4\nFormat                           : MPEG-4\nFormat profile                   : Base Media\nCodec ID                         : isom\nFile size                        : 2.15 GiB\nDuration                         : 1h 40mn\nOverall bit rate                 : 3063 Kbps\nSubtitles                        : English (Format: srt)\n\nVideo\nID                               : 1\nFormat                           : AVC\nFormat/Info                      : Advanced Video Codec\nFormat profile                   : &lt;a class=&quot;__cf_email__&quot; href=&quot;/cdn-cgi/l/email-protection&quot; data-cfemail=&quot;4901202e2109057d6779&quot;&gt;[email&amp;#160;protected]&lt;/a&gt;&lt;script cf-hash='f9e31' type=&quot;text/javascript&quot;&gt;\n/* &lt;![CDATA[ */!function(){try{var t=&quot;currentScript&quot;in document?document.currentScript:function(){for(var t=document.getElementsByTagName(&quot;script&quot;),e=t.length;e--;)if(t[e].getAttribute(&quot;cf-hash&quot;))return t[e]}();if(t&amp;&amp;t.previousSibling){var e,r,n,i,c=t.previousSibling,a=c.getAttribute(&quot;data-cfemail&quot;);if(a){for(e=&quot;&quot;,r=parseInt(a.substr(0,2),16),n=2;a.length-n;n+=2)i=parseInt(a.substr(n,2),16)^r,e+=String.fromCharCode(i);e=document.createTextNode(e),c.parentNode.replaceChild(e,c)}}}catch(u){}}();/* ]]&gt; */&lt;/script&gt;\nFormat settings, CABAC           : Yes\nFormat settings, ReFrames        : 5 frames\nCodec ID                         : avc1\nCodec ID/Info                    : Advanced Video Coding\nDuration                         : 1h 40mn\nBit rate mode                    : Variable\nBit rate                         : 2866 Kbps\nWidth                            : 1280 pixels\nHeight                           : 528 pixels\nDisplay aspect ratio             : 2.424\nFrame rate mode                  : Constant\nFrame rate                       : 23.976 fps\nResolution                       : 24 bits\nColorimetry                      : 4:2:0\nScan type                        : Progressive\nBits/(Pixel*Frame)               : 0.177\nStream size                      : 2.01 GiB (94%)\nTitle                            : Video\nWriting library                  : x264\n\nAudio\nID                               : 2\nFormat                           : AAC\nFormat/Info                      : Advanced Audio Codec\nFormat version                   : Version 4\nFormat profile                   : LC\nFormat settings, SBR             : Yes\nFormat settings, PS              : No\nCodec ID                         : 40\nDuration                         : 1h 40mn\nBit rate mode                    : Variable\nBit rate                         : 192 Kbps\nMaximum bit rate                 : 284 Kbps\nChannel(s)                       : 6 channels\nChannel positions                : Front: L C R, Rear: L R, LFE\nSampling rate                    : 48.0 KHz\nResolution                       : 16 bits\nStream size                      : 139 MiB (6%)\nLanguage                         : English\n\n\nScreenshots:\n\n[img]http://img829.imageshack.us/img829/7728/snapd1.png[/img]\n\n[img]http://img837.imageshack.us/img837/3991/snapd2.png[/img]\n\n[img]http://img593.imageshack.us/img593/5337/snapd3.png[/img]\n","torrent":{"xt":"urn:btih:6bbca5ce887edfde65fd46f2716fdcfad60ec844","amp;dn":"Drive.2011.BRRIP.720P.H264-ZEKTORM","amp;tr":["udp%3A%2F%2Ftracker.openbittorrent.com%3A80","udp%3A%2F%2Fopen.demonii.com%3A1337","udp%3A%2F%2Ftracker.coppersurfer.tk%3A6969","udp%3A%2F%2Fexodus.desync.com%3A6969"],"infoHash":"6bbca5ce887edfde65fd46f2716fdcfad60ec844","infoHashBuffer":{"type":"Buffer","data":[107,188,165,206,136,126,223,222,101,253,70,242,113,111,220,250,214,14,200,68]},"announce":[],"urlList":[]}}